<svg width="374" height="380" viewBox="0 0 374 380" fill="none" xmlns="http://www.w3.org/2000/svg"><g id="header 1" clip-path="url(#clip0_445_2)"><g id="clock"><path id="Path 41" d="M121.612 46.666C121.668 72.108 108.145 92.866 84.061 93.553C83.689 93.564 77.542 93.553 77.168 93.553C52.568 93.613 32.575 72.718 32.518 46.883C32.461 21.048 52.359 0.0560327 76.962 -0.00396729C77.537 -0.00396729 82.938 0.0480308 83.508 0.0690308C107.315 0.966031 121.556 21.439 121.612 46.666Z" fill="url(#paint0_linear_445_2)"/><path id="Ellipse 1" d="M85.392 93.974C109.995 93.974 129.939 73.0308 129.939 47.196C129.939 21.3612 109.995 0.417999 85.392 0.417999C60.7894 0.417999 40.845 21.3612 40.845 47.196C40.845 73.0308 60.7894 93.974 85.392 93.974Z" fill="url(#paint1_linear_445_2)"/><path id="Ellipse 2" style="mix-blend-mode:multiply" opacity="0.3" d="M85.393 92.797C109.376 92.797 128.818 72.3812 128.818 47.197C128.818 22.0128 109.376 1.597 85.393 1.597C61.41 1.597 41.968 22.0128 41.968 47.197C41.968 72.3812 61.41 92.797 85.393 92.797Z" fill="url(#paint2_linear_445_2)"/><path id="Ellipse 3" d="M85.393 91.419C108.652 91.419 127.507 71.6197 127.507 47.196C127.507 22.7723 108.652 2.97301 85.393 2.97301C62.1341 2.97301 43.279 22.7723 43.279 47.196C43.279 71.6197 62.1341 91.419 85.393 91.419Z" fill="url(#paint3_linear_445_2)"/><g id="rotate_3"><path id="Ellipse 4" d="M84.493 90.475C107.255 90.475 125.707 71.0988 125.707 47.197C125.707 23.2952 107.255 3.91901 84.493 3.91901C61.7311 3.91901 43.279 23.2952 43.279 47.197C43.279 71.0988 61.7311 90.475 84.493 90.475Z" fill="url(#paint4_linear_445_2)"/><path id="Ellipse 5" d="M84.376 50.626C85.823 50.626 86.996 49.3939 86.996 47.874C86.996 46.3541 85.823 45.122 84.376 45.122C82.929 45.122 81.756 46.3541 81.756 47.874C81.756 49.3939 82.929 50.626 84.376 50.626Z" fill="url(#paint5_linear_445_2)"/><g id="rotate_2"><path id="Path 44" d="M84.3761 25.946C83.9261 25.9576 83.4989 26.1471 83.1885 26.4731C82.878 26.7991 82.7096 27.2349 82.7201 27.685V46.234C82.7091 46.4583 82.7436 46.6825 82.8219 46.8931C82.9001 47.1036 83.0204 47.296 83.1753 47.4587C83.3301 47.6213 83.5163 47.7508 83.7228 47.8393C83.9292 47.9278 84.1515 47.9734 84.3761 47.9734C84.6007 47.9734 84.8229 47.9278 85.0293 47.8393C85.2357 47.7508 85.422 47.6213 85.5769 47.4587C85.7318 47.296 85.8519 47.1036 85.9302 46.8931C86.0084 46.6825 86.0431 46.4583 86.0321 46.234V27.685C86.0426 27.2349 85.874 26.7991 85.5636 26.4731C85.2531 26.1471 84.8261 25.9576 84.3761 25.946Z" fill="url(#paint6_linear_445_2)"/><path id="Path 45" d="M84.195 48.283C84.1129 48.1842 84.0114 48.1034 83.8967 48.0456C83.7821 47.9877 83.6567 47.9541 83.5285 47.9467C83.4003 47.9394 83.2719 47.9586 83.1514 48.003C83.0309 48.0474 82.9208 48.1162 82.828 48.205L60.528 69.631C60.3358 69.8163 60.2212 70.0676 60.2072 70.3342C60.1933 70.6008 60.2812 70.8627 60.453 71.067C60.535 71.1658 60.6365 71.2468 60.7512 71.3047C60.8658 71.3626 60.9911 71.3964 61.1193 71.4038C61.2476 71.4112 61.3759 71.3921 61.4965 71.3477C61.617 71.3034 61.7272 71.2348 61.82 71.146L84.12 49.72C84.3125 49.5347 84.4274 49.2831 84.4413 49.0163C84.4552 48.7495 84.3672 48.4873 84.195 48.283V48.283Z" fill="url(#paint7_linear_445_2)"/></g></g><g id="rotate_1"><path id="Path 42" d="M88.843 45.957L120.243 58.132C121.29 54.597 121.82 50.9289 121.816 47.242C121.816 27.712 107.216 11.764 88.848 10.779L88.843 45.957Z" fill="url(#paint8_linear_445_2)"/></g><g id="Group 36" style="mix-blend-mode:multiply" opacity="0.2"><g id="Path 43" style="mix-blend-mode:multiply" opacity="0.2"><path d="M74.144 46.215C70.885 35.659 82.668 28.042 80.811 15.738C79.991 10.309 76.801 5.86101 72.877 2.29201C54.329 7.98201 40.798 25.992 40.845 47.305C40.902 73.14 60.893 94.035 85.495 93.975C91.3556 93.9642 97.1508 92.7437 102.518 90.39C101.758 75.46 97.179 67.026 92.308 61.945C84.802 54.113 76.629 54.264 74.144 46.215Z" fill="#D8DEE8"/></g></g></g><g id="man_2"><path id="Path 46" d="M292.369 355.48C292.862 357.403 293.226 359.355 293.461 361.326C293.495 362.88 276.388 365.047 276.121 363.902C275.854 362.757 278.721 360.672 280.786 359.852C282.851 359.032 288.919 356.798 288.919 356.798L292.369 355.48Z" fill="url(#paint9_linear_445_2)"/><path id="Path 47" d="M287.853 351.479L288.834 356.841C288.834 356.841 290.934 357.999 292.61 356.841L293.018 350.886L287.853 351.479Z" fill="url(#paint10_linear_445_2)"/><path id="Path 48" d="M323.569 360.073C324.062 361.995 324.427 363.948 324.662 365.918C324.696 367.472 307.588 369.639 307.322 368.494C307.056 367.349 309.922 365.264 311.987 364.443C314.052 363.622 320.12 361.389 320.12 361.389L323.569 360.073Z" fill="url(#paint11_linear_445_2)"/><path id="Path 49" d="M319.053 356.073L320.034 361.435C320.034 361.435 322.134 362.593 323.81 361.435L324.218 355.48L319.053 356.073Z" fill="url(#paint12_linear_445_2)"/><path id="Path 50" d="M279.66 210.097L274.673 222.645C274.917 245.736 276.125 270.769 278.773 297.432C280.744 317.269 283.314 336.005 286.255 353.549L294.298 352.531C298.874 341.598 300.989 329.792 300.492 317.951C299.726 302.851 294.998 301.216 294.132 286.768C293.009 268.042 300.45 262.425 302.825 239.601C303.962 228.404 303.529 217.104 301.538 206.027L279.66 210.097Z" fill="url(#paint13_linear_445_2)"/><path id="Path 51" style="mix-blend-mode:multiply" opacity="0.3" d="M301.538 206.027L289.723 208.227C283.571 221.241 282.612 234.351 284.323 239.978C286.748 247.94 291.651 250.16 292.045 258.317C292.434 266.388 287.858 268.856 285.61 278.586C284.054 285.323 285.087 291.32 287.219 303.038C291.512 326.638 297.842 333.459 293.654 341.646C292.464 343.972 290.211 346.81 285.545 349.212C285.78 350.662 286.014 352.112 286.254 353.55L294.298 352.533C298.874 341.6 300.989 329.794 300.492 317.952C299.726 302.852 294.998 301.216 294.131 286.768C293.009 268.042 300.449 262.426 302.824 239.602C303.961 228.405 303.528 217.104 301.538 206.027V206.027Z" fill="url(#paint14_linear_445_2)"/><path id="Path 52" d="M290.918 216.485C296.272 236.503 301.305 257.985 305.718 280.836C311.049 308.43 314.807 334.547 317.411 358.866L326.292 358.407C336.086 334.449 335.546 318.782 333.053 308.752C330.901 301.271 329.346 293.631 328.4 285.904C327.645 278.771 327.362 271.596 327.553 264.426C327.665 248.266 329.08 244.626 328.341 232.333C327.647 220.795 327.227 214.962 323.666 211.823C314.286 203.554 292.564 215.555 290.918 216.485Z" fill="url(#paint15_linear_445_2)"/><path id="Path 53" d="M204.965 169.98C204.965 169.98 198.465 169.423 197.52 168.368C196.575 167.313 195.971 167.259 195.83 166.292C195.689 165.325 192.95 165.792 194.089 167.892C195.228 169.992 192.658 168.892 192.154 168.839C190.994 168.722 186.57 168.593 186.698 168.867C186.826 169.141 184.715 171.897 187.856 173.32C190.606 174.566 189.801 174.02 191.589 174.102C193.377 174.184 198.915 172.381 198.915 172.381L203.657 172.743L204.965 169.98Z" fill="url(#paint16_linear_445_2)"/><path id="Path 54" d="M201.155 166.942C200.868 169.11 200.582 171.277 200.296 173.442C204.604 177.035 214.127 183.922 227.377 184.955C250.735 186.777 273.899 169.49 278.212 150.047C280.347 140.417 278.603 126.907 272.618 124.735C270.957 124.135 268.461 124.217 263.318 127.674C249.587 136.898 248.418 149.011 240.834 157.205C235.374 163.105 224.64 169.079 201.155 166.942Z" fill="white"/><path id="Path 55" d="M272.742 226.946C269.536 222.477 272.727 217.664 272.823 208.702C272.932 198.546 268.914 197.178 263.733 180.776C260.288 169.868 256.98 159.395 258.907 146.676C259.83 140.576 261.396 130.236 269.407 124.66C273.54 121.782 279.48 121.56 291.191 121.237C305.673 120.837 312.914 120.637 318.518 123.037C319.338 123.389 336.412 130.976 338.7 145.391C341.029 160.062 325.111 163.335 324.544 183.191C324.289 192.106 327.095 205.562 328.914 214.291C330.661 222.671 331.57 224.78 330.105 227.476C326.574 233.976 314.105 233.203 289.169 231.658C279.385 231.048 275.134 230.281 272.742 226.946Z" fill="white"/><path id="Path 56" d="M306.846 181.419C308.196 185.173 312.175 187.738 315.533 196.863C316.258 198.833 321.421 212.863 316.498 216.811C313.654 219.092 310.645 215.443 303.307 215.523C290.591 215.662 285.418 226.773 276.924 224.533C274.758 223.901 272.83 222.639 271.385 220.906C271.049 223.019 271.534 225.18 272.741 226.946C275.134 230.281 279.384 231.046 289.166 231.654C314.102 233.199 326.566 233.972 330.102 227.472C331.567 224.772 330.658 222.667 328.911 214.287C327.092 205.56 324.286 192.104 324.541 183.187C325.108 163.328 341.027 160.055 338.697 145.387C338.049 141.657 336.488 138.145 334.155 135.164C314.421 145.05 302.603 169.624 306.846 181.419Z" fill="#F4F7FA"/><g id="Group 40"><path id="Path 57" d="M346.945 226.777C346.945 226.777 350.916 228.11 351.337 234.688C350.689 234.629 349.177 234.664 349.177 234.664C349.177 234.664 349.458 229.883 346.63 228.914C346.809 228.215 346.915 227.498 346.945 226.777V226.777Z" fill="url(#paint17_linear_445_2)"/><path id="Path 58" d="M332.214 226.155C332.315 227.366 332.415 228.578 332.514 229.789C334.635 229.15 336.821 228.748 339.03 228.589C341.809 228.494 344.587 228.79 347.283 229.468C347.513 229.14 347.666 228.764 347.73 228.368C347.838 227.733 347.779 227.082 347.561 226.476C346.239 225.989 344.879 225.612 343.495 225.349C339.724 224.718 335.857 224.995 332.214 226.155V226.155Z" fill="url(#paint18_linear_445_2)"/><path id="Path 59" d="M332.025 227.2C332.031 226.762 332.064 226.216 332.213 226.154C332.362 226.092 332.542 226.494 332.624 226.715C332.724 227.047 332.776 227.391 332.779 227.737C332.838 228.281 332.813 228.831 332.705 229.368C332.666 229.533 332.605 229.783 332.516 229.788C332.444 229.788 332.381 229.633 332.288 229.325C332.091 228.635 332.002 227.918 332.025 227.2V227.2Z" fill="url(#paint19_linear_445_2)"/><path id="Path 60" d="M328.328 234.807C329.171 234.973 331.215 235.463 331.215 235.463C331.215 235.463 329.882 231.193 332.394 229.263C332.49 228.788 332.508 228.301 332.446 227.82C332.397 227.435 332.296 227.058 332.146 226.7C331.08 227.284 328.76 229.269 328.328 234.807Z" fill="url(#paint20_linear_445_2)"/><path id="Path 61" d="M310.716 235.754C310.716 235.754 310.816 233.495 314.401 233.535C314.963 233.952 314.992 235.796 314.992 235.796L310.716 235.754Z" fill="url(#paint21_linear_445_2)"/><path id="Path 62" d="M307.525 280.236L317.325 286.017L323.208 264.185L313.492 234.966L310.717 235.754L306.489 277.937C306.43 278.379 306.495 278.828 306.678 279.235C306.861 279.641 307.155 279.988 307.525 280.236Z" fill="url(#paint22_linear_445_2)"/><path id="Path 63" style="mix-blend-mode:multiply" opacity="0.3" d="M323.207 264.186L313.491 234.967L310.716 235.755C311.349 238.771 311.739 241.833 311.882 244.911C312.538 254.889 314.713 257.66 313.66 264.616C312.784 270.408 310.866 271.216 311.034 275.108C311.216 279.349 313.682 282.859 316.604 285.594L317.323 286.018L323.207 264.186Z" fill="url(#paint23_linear_445_2)"/><path id="Path 64" d="M313.491 234.966L365.609 235.511L373.529 280.398L317.323 286.017L313.491 234.966Z" fill="url(#paint24_linear_445_2)"/><g id="Group 38" style="mix-blend-mode:multiply" opacity="0.2"><path id="Path 65" style="mix-blend-mode:multiply" opacity="0.2" d="M365.609 235.511L348.409 235.331C347.978 236.584 347.468 237.809 346.884 238.998C339.062 254.898 320.884 256.948 321.213 259.598C321.713 263.557 361.64 257.821 362.635 263.132C363.115 265.693 354.853 271.613 346.135 273.938C335.573 276.754 327.728 273.462 322.47 279.606C321.009 281.395 319.993 283.506 319.507 285.764L373.537 280.398L365.609 235.511Z" fill="url(#paint25_linear_445_2)"/></g><path id="Path 66" d="M314.401 233.535C313.584 233.442 312.757 233.595 312.028 233.975C311.843 234.082 311.668 234.204 311.504 234.342L311.929 234.195C312.297 234.093 312.689 234.113 313.045 234.253C313.401 234.392 313.702 234.643 313.903 234.969C314.302 236.188 314.532 237.456 314.584 238.737C314.852 241.489 316.497 258.588 316.497 258.588C316.516 259.243 316.785 259.866 317.249 260.329C317.712 260.793 318.335 261.062 318.99 261.081L367.268 258.327C367.632 258.32 367.983 258.193 368.268 257.967C368.57 257.709 368.799 257.375 368.93 257C369.061 256.625 369.091 256.222 369.015 255.832L366.639 236.074C366.578 235.556 366.338 235.076 365.961 234.715C365.584 234.355 365.093 234.137 364.573 234.1L314.401 233.535Z" fill="url(#paint26_linear_445_2)"/><path id="Path 67" d="M314.935 233.54C314.226 233.474 313.511 233.511 312.812 233.649C312.559 233.702 312.317 233.798 312.098 233.935C312.548 233.824 313.022 233.866 313.446 234.055C313.87 234.243 314.218 234.567 314.438 234.975C314.816 236.199 315.044 237.463 315.118 238.742C315.386 241.493 317.03 258.587 317.03 258.587C317.049 259.242 317.318 259.864 317.781 260.328C318.244 260.791 318.867 261.06 319.522 261.079L368.299 259.795C368.663 259.788 369.014 259.661 369.299 259.435C369.601 259.177 369.829 258.843 369.96 258.468C370.091 258.093 370.121 257.69 370.045 257.3L367.145 236.08C367.084 235.562 366.844 235.082 366.468 234.722C366.091 234.361 365.6 234.144 365.08 234.106L314.935 233.54Z" fill="url(#paint27_linear_445_2)"/><path id="Path 68" style="mix-blend-mode:multiply" opacity="0.1" d="M370.045 257.3L367.145 236.08C367.084 235.562 366.844 235.082 366.468 234.722C366.091 234.361 365.6 234.144 365.08 234.106L314.937 233.54C314.228 233.474 313.513 233.511 312.814 233.649C312.561 233.702 312.319 233.798 312.1 233.935C312.55 233.824 313.024 233.866 313.448 234.055C313.872 234.243 314.22 234.567 314.44 234.975C314.508 235.133 314.565 235.295 314.61 235.46C319.502 235.704 324.367 235.614 329.204 235.978C338.687 236.678 348.17 236.768 356.926 240.678C359.708 241.92 361.61 246.316 360.857 248.339C360.315 249.799 358.457 249.68 357.812 251.599C357.13 253.619 358.765 254.99 358.079 256.408C357.36 257.895 355.173 257.193 351.62 258.266C350.055 258.745 348.567 259.448 347.203 260.353L368.303 259.798C368.667 259.791 369.018 259.664 369.303 259.438C369.605 259.179 369.833 258.845 369.963 258.469C370.093 258.094 370.122 257.69 370.045 257.3V257.3Z" fill="url(#paint28_linear_445_2)"/><g id="Group 39"><path id="Path 69" d="M347.1 263.881L340.992 265.419L340.345 265.477C340.179 265.48 340.014 265.45 339.86 265.387C339.706 265.324 339.567 265.231 339.45 265.113C339.334 264.994 339.243 264.853 339.183 264.698C339.123 264.543 339.095 264.378 339.101 264.212L338.831 257.07C338.814 256.903 338.829 256.734 338.878 256.574C338.926 256.413 339.006 256.264 339.112 256.134C339.218 256.004 339.349 255.897 339.498 255.819C339.646 255.74 339.808 255.691 339.975 255.676L340.626 255.665L346.769 256.449C347.353 256.439 347.845 256.121 347.869 256.826L348.119 263.489C348.148 264.193 347.683 263.828 347.1 263.881Z" fill="url(#paint29_linear_445_2)"/><path id="Path 70" d="M347.563 264.862L340.797 265.474C340.631 265.477 340.466 265.447 340.312 265.384C340.159 265.321 340.019 265.228 339.903 265.109C339.787 264.991 339.696 264.85 339.636 264.695C339.576 264.54 339.548 264.375 339.554 264.209L339.284 257.069C339.267 256.902 339.283 256.734 339.331 256.573C339.379 256.412 339.458 256.263 339.565 256.133C339.671 256.003 339.802 255.896 339.951 255.818C340.099 255.739 340.261 255.691 340.428 255.675L347.214 255.561C347.525 255.59 347.814 255.736 348.019 255.971C348.225 256.207 348.333 256.512 348.32 256.824L348.57 263.485C348.604 263.799 348.519 264.114 348.333 264.368C348.147 264.623 347.872 264.799 347.563 264.862V264.862Z" fill="url(#paint30_linear_445_2)"/></g></g><path id="Path 71" d="M339.383 217.043C339.383 217.043 338.814 220.812 338.245 221.167C337.676 221.522 335.899 223.514 336.254 224.794C336.609 226.074 335.254 228.994 337.782 229.703C340.31 230.412 343.208 231.168 343.5 228.903C343.792 226.638 343.08 224.081 343.151 222.161C343.259 220.825 343.621 219.521 344.218 218.321L339.383 217.043Z" fill="url(#paint31_linear_445_2)"/><path id="Path 72" d="M315.533 121.898C312.158 138.347 315.071 149.008 318.59 155.842C325.713 169.676 337.956 172.942 339.99 185.211C341.46 194.063 342.1 211.518 337.78 217.18C341.674 218.734 342.08 218.647 345.021 218.647C348.96 216.397 357.355 201.383 360.896 182.225C365.193 158.984 347.225 131.542 315.533 121.898Z" fill="white"/><path id="Path 73" d="M305.026 121.725C303.354 121.042 295.241 119.391 293.442 115.874C292.107 112.939 291.209 109.824 290.778 106.628C290.778 106.628 285.178 108.115 286 111.007C286.822 113.899 285.424 120.527 282.211 122.007C279.961 123.044 277.174 123.459 276.57 124.153C276.528 124.157 276.487 124.166 276.448 124.182C275.985 124.471 277.426 126.694 283.209 129.918C303.165 126.918 305.266 123.496 305.353 122.318C305.442 122.065 305.348 121.856 305.026 121.725Z" fill="url(#paint32_linear_445_2)"/><g id="Group 42"><path id="Path 74" d="M283.286 105.267C280.686 103.095 280.332 102.846 280.004 102.05C278.689 98.85 280.874 94.157 284.123 92.784C284.292 92.713 286.473 91.8171 287.404 92.7201C288.196 93.4861 287.22 94.711 287.854 96.259C288.448 97.709 289.748 97.717 292.294 99.477C294.394 100.926 295.694 101.827 296.094 103.209C296.908 106.059 293.738 110.539 290.624 110.673C289.502 110.721 289.152 110.175 283.286 105.267Z" fill="url(#paint33_linear_445_2)"/><g id="Group 41"><path id="Path 75" d="M290.355 111.146C289.606 112.065 288.633 112.774 287.528 113.204C286.424 113.635 285.228 113.772 284.055 113.602C280.497 113.024 280.746 104.945 283.197 103.461C283.754 103.2 284.359 103.056 284.974 103.036C285.588 103.016 286.201 103.121 286.774 103.345C287.489 103.621 287.707 103.95 288.883 104.379C289.967 104.779 290.293 104.679 290.602 104.996C290.988 105.39 291.212 106.286 290.285 108.566C290.553 108.279 290.902 108.079 291.286 107.993C291.669 107.907 292.07 107.939 292.435 108.084C292.623 108.211 292.773 108.387 292.867 108.594C293.278 109.557 292.328 110.646 290.355 111.146Z" fill="url(#paint34_linear_445_2)"/></g></g><g id="Group 43"><path id="Path 76" d="M288.678 129.239C288.678 129.239 287.55 135.26 285.787 135.377C284.763 135.442 283.744 135.56 282.732 135.729L280.76 128.366C280.76 128.366 283.33 130.461 288.678 129.239Z" fill="url(#paint35_linear_445_2)"/><path id="Path 77" d="M286.624 134.875C286.624 134.875 290.547 178.921 304.298 185.975C303.946 187.386 304.298 198.844 304.298 198.844C304.298 198.844 291.48 194.985 290.75 195.244C290.02 195.503 275.226 170.979 282.732 135.737L286.624 134.875Z" fill="url(#paint36_linear_445_2)"/></g></g><g id="translate"><path id="Path 78" d="M119.127 355.241L124.555 354.123L150.178 321.234C150.178 321.234 136.085 316.28 135.573 316.451C135.061 316.622 123.103 323.625 122.505 324.309C121.907 324.993 114.391 339.768 114.391 340.879C114.391 341.99 119.127 355.241 119.127 355.241Z" fill="url(#paint37_linear_445_2)"/><path id="Path 79" d="M5.62097 329.09H8.36798L29.443 307.484C29.443 307.484 21.692 304.984 21.051 305.05C20.41 305.116 10.674 308.771 10.674 308.771C10.674 308.771 6.25401 319.463 6.06201 320.103C5.87001 320.743 5.62097 329.09 5.62097 329.09Z" fill="url(#paint38_linear_445_2)"/><g id="Group 46"><path id="Path 80" d="M157.162 323.214H157.177C158.551 323.36 159.874 323.817 161.047 324.548C162.229 325.12 163.721 325.792 163.738 326.685V326.705C167.976 331.316 171.393 339.919 171.59 349.619C171.853 362.537 166.756 373.078 159.845 374.411V374.419C159.379 374.495 153.601 376.706 135.256 374.973C134.625 367.12 133.51 322.611 133.51 322.611C133.51 322.611 148.121 321.584 157.162 323.214Z" fill="url(#paint39_linear_445_2)"/><g id="Group 45"><path id="Path 81" d="M121.063 348.079C121.337 362.856 128.404 374.979 136.701 375.13C144.838 375.282 151.094 363.825 150.815 349.556C150.536 335.287 143.831 323.235 135.699 322.581C127.408 321.909 120.789 333.313 121.063 348.079Z" fill="url(#paint40_linear_445_2)"/><path id="Path 82" d="M127.555 348.293C127.755 358.779 132.472 367.411 138.032 367.564C143.52 367.716 147.755 359.53 147.556 349.288C147.357 339.046 142.8 330.448 137.315 330.054C131.758 329.655 127.358 337.815 127.555 348.293Z" fill="white"/></g></g><g id="Group 48"><path id="Path 83" d="M36.098 309.712H36.11C37.2856 309.84 38.4167 310.233 39.418 310.862C40.2458 311.417 41.0319 312.032 41.77 312.702V312.719C44.958 316.699 47.825 324.112 47.995 332.467C48.22 343.595 44.012 352.667 38.407 353.812L38.363 353.819C37.985 353.884 33.279 355.784 18.395 354.274C17.876 347.509 18.045 309.174 18.045 309.174C18.045 309.174 28.762 308.3 36.098 309.712Z" fill="url(#paint41_linear_445_2)"/><g id="Group 47"><path id="Path 84" d="M6.83403 331.094C7.07003 343.823 12.815 354.268 19.545 354.409C26.145 354.547 31.211 344.685 30.971 332.394C30.731 320.103 25.281 309.717 18.683 309.145C11.958 308.562 6.59903 318.378 6.83403 331.094Z" fill="url(#paint42_linear_445_2)"/><path id="Path 85" d="M12.102 331.287C12.271 340.319 16.109 347.759 20.62 347.896C25.072 348.032 28.501 340.984 28.329 332.163C28.157 323.342 24.453 315.931 20.003 315.586C15.494 315.237 11.933 322.262 12.102 331.287Z" fill="white"/></g></g><g id="Group 50"><path id="Path 86" d="M319.161 310.524H319.179C320.774 310.534 322.342 310.927 323.754 311.668C324.951 312.174 326.019 312.942 326.88 313.915V313.939C333.2 318.852 336.78 328.861 336.997 340.46C337.283 355.895 330.886 368.738 322.226 370.645L322.282 370.653C321.703 370.764 314.606 373.612 292.647 372.398C291.917 363.455 290.672 312.586 290.672 312.586C290.672 312.586 308.089 309.69 319.161 310.524Z" fill="url(#paint43_linear_445_2)"/><g id="Group 49"><path id="Ellipse 6" d="M294.37 372.505C304.028 372.326 311.608 358.702 311.3 342.074C310.992 325.447 302.913 312.112 293.255 312.291C283.597 312.47 276.018 326.094 276.326 342.722C276.634 359.349 284.712 372.684 294.37 372.505Z" fill="url(#paint44_linear_445_2)"/><path id="Ellipse 7" d="M295.971 363.779C302.489 363.655 307.589 353.914 307.363 342.023C307.137 330.131 301.671 320.591 295.153 320.715C288.635 320.839 283.535 330.579 283.761 342.471C283.987 354.363 289.454 363.903 295.971 363.779Z" fill="url(#paint45_linear_445_2)"/></g></g><path id="Path 87" d="M363.857 348.595L363.869 349.212C363.93 352.777 362.573 356.22 360.096 358.785C357.618 361.349 354.224 362.824 350.659 362.886L186.348 365.925C171.455 366.2 168.372 363.807 167.968 363.39C167.937 363.376 167.91 363.355 167.888 363.329L155.258 361.236C156.363 357.319 156.869 353.257 156.758 349.188C156.466 333.466 147.558 320.869 137.002 321.064C127.56 321.239 120.19 331.59 118.359 345.036C118.359 345.047 118.359 345.047 118.359 345.058C118.388 346.636 118.39 348.244 118.421 349.896C118.534 351.692 118.764 353.478 119.11 355.243L34.574 341.221L32.998 340.605C33.6265 337.749 33.9108 334.829 33.845 331.905C33.605 318.95 27.068 308.567 19.265 308.711C12.13 308.843 6.39905 317.699 5.63005 329.094C5.04194 328.418 4.49685 327.705 3.99803 326.961C1.92068 323.804 0.653962 320.183 0.310041 316.419C-1.52296 292.152 5.19102 276.091 11.876 266.386C17.749 257.845 23.6 254.217 23.6 254.217L48.087 238.484C61.9774 229.549 78.0807 224.656 94.594 224.353L189.71 222.594C204.133 222.298 218.409 225.531 231.297 232.012C257.568 245.212 286.397 265.312 286.397 265.312C320.774 268.706 339.774 283.844 339.774 283.844C343.812 286.85 347.438 290.374 350.558 294.324C350.958 294.832 351.343 295.345 351.709 295.859C355.474 301.044 358.22 306.897 359.801 313.106C359.825 313.19 359.85 313.275 359.868 313.359C362.19 322.764 362.09 332.604 359.576 341.959C360.835 342.56 361.901 343.498 362.657 344.67C363.413 345.842 363.829 347.201 363.857 348.595V348.595Z" fill="url(#paint46_linear_445_2)"/><path id="Path 88" d="M168.255 363.328C168.271 363.353 168.292 363.374 168.318 363.389C169.474 364.084 170.987 367.897 209.003 365.511L350.679 362.886C354.242 362.822 357.633 361.345 360.107 358.781C362.581 356.216 363.935 352.774 363.871 349.211L363.86 348.598C363.86 348.432 363.844 348.276 363.831 348.111C363.722 346.804 363.273 345.548 362.527 344.469C361.782 343.39 360.768 342.525 359.584 341.96L194.596 346.574C194.596 346.574 178.956 344.029 173.672 346.92C172.995 347.245 172.451 347.794 172.133 348.475C169.987 353.682 167.173 360.929 168.255 363.328Z" fill="url(#paint47_linear_445_2)"/><path id="Path 89" d="M359.811 313.107C357.419 315.163 354.467 316.458 351.334 316.824L333.228 319.157C331.362 319.416 329.463 319.024 327.853 318.046C327.127 317.625 326.508 317.042 326.044 316.343C325.579 315.644 325.282 314.847 325.175 314.015L324.984 311.959C324.716 309.077 327.119 306.543 330.567 305.992C336.274 305.197 341.71 303.057 346.428 299.75L351.728 295.86C356.099 300.662 358.915 306.675 359.806 313.107H359.811Z" fill="white"/><g id="Group 51"><path id="Path 90" d="M243.238 313.392C244.333 314.719 245.881 315.593 247.582 315.846L313.632 314.615C314.404 314.48 315.137 314.178 315.779 313.728C316.421 313.279 316.957 312.694 317.348 312.015V312.015C318.187 310.615 317.769 309.515 316.419 309.536L243.563 310.886C242.219 310.915 242.049 312.029 243.238 313.393V313.392Z" fill="url(#paint48_linear_445_2)"/><path id="Path 91" d="M250.848 322.276C252.102 323.714 253.902 324.876 254.884 324.86L308.566 323.848C309.543 323.83 311.058 322.606 311.947 321.128C312.833 319.659 312.618 318.493 311.492 318.516L250.667 319.656C249.536 319.677 249.606 320.844 250.848 322.276V322.276Z" fill="url(#paint49_linear_445_2)"/></g><path id="Path 92" d="M224.081 324.924C228.099 324.746 231.243 321.772 231.181 318.211L231.141 316.04C231.078 312.655 228.125 309.875 224.314 309.614L217.136 309.121L174.236 298.669L175.272 304.033C176.838 312.139 183.177 318.867 191.898 321.679L198.279 323.736C202.519 325.095 206.967 325.688 211.415 325.487L224.081 324.924Z" fill="white"/><g id="Path 93" style="mix-blend-mode:soft-light" opacity="0.4"><path d="M173.672 346.918L191.572 351.3L363.829 348.111C363.72 346.804 363.271 345.548 362.526 344.469C361.78 343.39 360.766 342.525 359.582 341.96L194.594 346.574C194.594 346.574 178.955 344.027 173.672 346.918Z" fill="white"/></g><g id="Group 52"><path id="Path 94" d="M60.65 337.104H60.682C61.235 336.055 61.691 336.33 61.664 335.757C61.646 335.41 59.991 300.768 60.752 286.695C61.412 274.504 63.411 272.263 63.588 272.095C63.8064 271.96 63.9697 271.752 64.0489 271.508C64.128 271.264 64.1177 271 64.02 270.763C63.9139 270.508 63.7116 270.305 63.4571 270.199C63.2025 270.092 62.9161 270.09 62.66 270.193C61.915 270.507 59.428 272.601 58.678 286.461C57.911 300.64 59.578 335.513 59.59 335.861C59.616 336.423 60.09 337.114 60.65 337.104Z" fill="url(#paint50_linear_445_2)"/></g><path id="Path 95" style="mix-blend-mode:multiply" opacity="0.2" d="M3.39405 326.008C4.0272 327.11 4.7739 328.143 5.62202 329.089C6.38702 317.696 12.1101 308.838 19.2301 308.706C27.0241 308.562 33.549 318.948 33.789 331.9C33.8534 334.825 33.5694 337.747 32.943 340.605L34.512 341.22L118.912 355.24C118.564 353.476 118.334 351.691 118.221 349.896C118.191 348.246 118.192 346.636 118.163 345.059V345.038C117.945 333.279 99.572 334.004 91.495 334.527C82.629 335.097 72.331 337.997 64.6 332.035C60.029 328.507 57.833 322.65 53.341 318.892C48.312 314.697 42.124 311.926 36.479 308.677C24.589 301.817 21.343 293.883 21.742 278.396C21.996 268.591 16.173 266.55 11.851 266.381C5.17902 276.087 -1.517 292.147 0.312997 316.418C0.563246 319.814 1.61949 323.102 3.39405 326.008Z" fill="url(#paint51_linear_445_2)"/><g id="Group 55"><g id="Group 54"><path id="Path 96" d="M111.897 231.295C111.897 231.295 123.497 259.454 126.334 263.554C126.619 263.952 126.958 264.309 127.34 264.615C131.228 267.74 140.611 268.138 140.611 268.138L278.644 265.581C260.227 252.192 240.925 240.065 220.871 229.281L111.897 231.295Z" fill="url(#paint52_linear_445_2)"/><path id="Path 97" style="mix-blend-mode:multiply" opacity="0.3" d="M278.644 265.581C260.226 252.192 240.924 240.065 220.87 229.281L213.72 229.414C211.802 232.595 209.156 235.276 206.001 237.236C191.317 245.844 173.595 241.793 157.901 247.363C147.701 250.841 140.478 258.363 135.833 267.621C137.416 267.88 139.012 268.055 140.614 268.144L278.644 265.581Z" fill="url(#paint53_linear_445_2)"/><g id="Group 53"><path id="Path 98" d="M27.496 256.737C27.496 256.737 42.335 262.484 62.221 267.784C62.9537 263.983 64.0065 260.251 65.368 256.628C68.9064 247.033 74.6087 238.383 82.032 231.35C74.1002 232.06 66.2962 233.81 58.821 236.556C47.0329 240.919 36.3414 247.806 27.496 256.737V256.737Z" fill="url(#paint54_linear_445_2)"/><path id="Path 99" d="M67.311 269.102C77.7062 271.759 88.2479 273.806 98.882 275.234C104.888 276.023 110.935 276.469 116.992 276.57C118.706 276.59 120.408 276.579 122.079 276.528C122.078 276.52 122.075 276.513 122.069 276.507C121.789 275.407 110.499 232.598 100.741 231.502C97.335 231.127 93.9106 230.944 90.484 230.955C81.7165 237.717 74.9418 246.725 70.878 257.024C69.3097 260.928 68.1153 264.972 67.311 269.102V269.102Z" fill="url(#paint55_linear_445_2)"/></g></g><path id="Path 100" opacity="0.3" d="M116.992 276.57C118.706 276.59 120.408 276.58 122.079 276.528C122.078 276.52 122.075 276.513 122.069 276.508C120.688 276.522 118.975 276.543 116.992 276.57Z" fill="url(#paint56_linear_445_2)"/><path id="Path 101" style="mix-blend-mode:multiply" opacity="0.7" d="M70.877 257.024C69.3092 260.928 68.1152 264.972 67.311 269.102C77.7062 271.759 88.2479 273.807 98.882 275.234C97.176 273.569 95.7427 271.645 94.635 269.534C89.098 259.301 79.631 257.701 70.877 257.024Z" fill="url(#paint57_linear_445_2)"/><path id="Path 102" style="mix-blend-mode:multiply" opacity="0.7" d="M27.496 256.737C27.496 256.737 42.335 262.484 62.221 267.784C62.9537 263.983 64.0065 260.251 65.368 256.627C60.086 256.195 55.514 255.46 52.851 252.374C48.182 246.937 53.734 240.647 58.819 236.555C47.0315 240.918 36.3407 247.806 27.496 256.737V256.737Z" fill="url(#paint58_linear_445_2)"/></g><g id="Group 56"><path id="Path 103" d="M121.764 278.487C121.764 278.487 116.964 260.896 110.584 260.307C104.204 259.718 85.968 254.87 84.484 263.619C83 272.368 86.3759 276.657 95.5759 277.019C100.682 277.26 105.799 277.166 110.893 276.736L115.219 281.198C115.219 281.198 122.135 285.787 121.764 278.487Z" fill="url(#paint59_linear_445_2)"/><path id="Path 104" d="M123.885 278.448C123.885 278.448 119.085 260.858 112.705 260.269C106.325 259.68 88.089 254.832 86.605 263.581C85.121 272.33 88.4969 276.619 97.6969 276.981C102.803 277.222 107.92 277.127 113.014 276.697L117.34 281.159C117.34 281.159 124.257 285.748 123.885 278.448Z" fill="url(#paint60_linear_445_2)"/></g></g><g id="man_1"><g id="Group 62"><g id="Group 61"><path id="Path 105" d="M180.719 171.336C180.719 171.336 186.046 166.642 187.125 164.928C188.204 163.214 188.234 166.574 187.154 167.253C186.074 167.932 202.389 165.673 199.514 168.502C196.639 171.331 194.566 174.002 190.704 174.177C186.842 174.352 182.286 175.528 181.504 176.043C180.722 176.558 180.719 171.336 180.719 171.336Z" fill="url(#paint61_linear_445_2)"/><path id="Path 106" d="M75.273 138.638C73.965 139.133 54.015 147.067 49.914 167.889C49.583 169.571 46.378 187.461 58.514 200.099C72.114 214.271 98.314 213.919 108.714 202.072C110.802 199.641 112.314 196.77 113.135 193.672V193.672L110.395 186.393C107.052 182.357 102.5 181.401 100.069 180.802C94.076 179.325 89.552 181.994 86.12 179.102C84.22 177.502 83.844 175.202 83.507 173.146C82.359 166.146 86.307 161.834 86.599 157.517C86.814 154.289 87.944 147.217 83.731 142.605C81.4686 140.325 78.4723 138.92 75.273 138.638Z" fill="#94672E"/><path id="Path 107" d="M67.501 370.696C67.268 369.414 63.128 368.254 61.079 369.971C60.061 370.823 59.36 372.552 59.949 373.332C60.163 373.616 59.286 374.115 60.126 374.125C62.915 374.158 67.732 371.97 67.501 370.696Z" fill="url(#paint62_linear_445_2)"/><path id="Path 108" d="M63.161 371.162L58.904 370.562C60.876 368.187 60.511 360.625 60.511 360.625L65.039 361.635C65.039 361.635 64.523 363.711 63.646 366.773C63.3235 368.214 63.1608 369.686 63.161 371.162V371.162Z" fill="url(#paint63_linear_445_2)"/><path id="Path 109" d="M63.539 370.641C63.539 370.641 58.413 369.46 57.859 370.476C57.305 371.492 56.874 374.216 60.126 374.127C63.378 374.038 63.828 371.5 63.539 370.641Z" fill="url(#paint64_linear_445_2)"/><path id="Path 110" d="M125.917 375.502C125.507 374.265 121.246 373.696 119.456 375.683C118.568 376.669 118.116 378.483 118.808 379.169C119.06 379.421 118.261 380.038 119.095 379.93C121.86 379.571 126.324 376.731 125.917 375.502Z" fill="url(#paint65_linear_445_2)"/><path id="Path 111" d="M121.686 376.573H117.386C119.006 373.945 117.586 366.508 117.586 366.508L122.21 366.875C122.21 366.875 121.99 369.002 121.549 372.157C121.432 373.63 121.478 375.111 121.686 376.573V376.573Z" fill="#893976"/><path id="Path 112" d="M132.829 213.973C135.847 223.953 138.077 234.155 139.496 244.485C144.719 282.476 133.618 283.685 135.696 325.785C136.358 339.223 124.054 370.209 122.97 370.894C122.405 370.952 121.838 370.974 121.27 370.96C119.8 370.908 118.344 370.666 116.937 370.238C114.988 369.902 107.961 350.869 109.59 339.553C110.743 331.543 110.408 322.953 109.74 305.753C109.632 302.967 102.505 251.56 102.505 251.56C100.337 270.588 97.844 286.76 95.683 299.291C88.739 339.565 66.16 363.941 64.983 364.332C64.3242 364.591 63.616 364.701 62.9097 364.653C62.2034 364.605 61.5166 364.4 60.899 364.054C60.4524 363.771 60.0944 363.367 59.866 362.89C59.266 362.417 60.044 322.682 66.931 292.777C76.931 249.371 72.574 239.215 75.741 219.827C78.474 203.058 132.829 213.973 132.829 213.973Z" fill="url(#paint66_linear_445_2)"/><path id="Path 113" d="M135.503 220.537C129.503 223.618 114.04 229.137 95.62 226.392C88.6684 225.349 81.944 223.135 75.733 219.843C76.309 218.097 76.762 216.443 77.111 214.884C79.635 203.509 76.55 196.762 74.993 190.484C72.473 180.302 72.431 181.071 70.355 172.984C66.925 159.641 66.363 146.011 68.718 143.217C75.069 135.696 86.51 135.428 92.455 135.248C99.089 135.055 114.343 132.715 122.746 140.273C122.892 140.405 121.17 141.325 122.02 142.316C124.261 144.959 126.247 147.809 127.95 150.827C130.087 154.73 131.76 158.869 132.937 163.16C134.707 169.224 135.933 175.434 136.603 181.716C136.726 182.9 136.811 183.901 136.872 184.679C138.409 204.878 136.885 214.196 135.503 220.537Z" fill="#94672E"/><path id="Path 114" d="M121.986 376C121.986 376 116.746 375.549 116.339 376.633C115.932 377.717 115.887 380.473 119.095 379.933C122.303 379.393 122.393 376.814 121.986 376Z" fill="url(#paint67_linear_445_2)"/><g id="Group 58"><path id="Path 115" d="M109.439 127.74C110.12 126.588 110.868 125.596 110.78 124.472C110.62 122.419 110.443 120.447 110.317 119.924C109.503 116.543 109.2 116.03 108.573 115.315L107.686 114.377C107.686 114.377 107.631 114.336 107.572 114.296C106.493 113.756 105.342 113.372 104.154 113.157C102.565 113.077 99.332 118.775 97.481 127.557C97.3304 127.87 97.1813 128.187 97.034 128.507C96.116 130.499 95.3279 132.458 94.6519 134.368C83.9149 135.276 82.425 136.535 82.377 137.268C82.277 138.8 88.394 140.568 92.995 141.243C103.029 142.712 113.344 140.066 113.295 138.195C113.274 137.381 111.28 136.319 102.774 135.205C102.974 133.797 103.174 132.389 103.374 130.982C104.066 130.82 108.016 130.15 109.439 127.74Z" fill="#FDBC66"/><path id="Path 116" d="M111.46 112.747C110.736 115.427 108.708 117.955 107.942 118.247C107.483 118.444 107.059 118.714 106.687 119.047C106.596 119.128 106.516 119.221 106.449 119.323C105.411 120.857 107.568 123.562 106.849 124.181C106.326 124.63 104.696 123.409 104.349 123.825C104.025 124.216 105.297 125.545 104.922 126.018C104.639 126.375 103.803 125.757 103.049 126.218C102.673 126.448 102.695 126.718 102.132 127.573C101.839 128.028 101.504 128.455 101.132 128.848C99.785 130.176 97.006 130.048 96.669 129.286C96.575 129.073 96.7351 128.957 96.7491 128.33C96.7427 127.885 96.6754 127.442 96.549 127.015C96.249 125.968 95.107 124.973 94.039 123.668C92.8272 122.376 92.0239 120.755 91.73 119.008C91.707 118.808 91.699 118.66 91.694 118.553C91.5915 116.186 92.3069 113.855 93.72 111.953C96.006 109.353 98.987 111.674 102.527 109.443C106.611 106.869 105.968 101.69 107.827 101.633C109.883 101.566 112.795 107.792 111.46 112.747Z" fill="black"/><path id="Path 117" d="M106.053 123.293C105.636 122.214 104.253 122.755 103.937 123.922C103.856 124.211 103.834 124.513 103.874 124.811C103.914 125.108 104.014 125.394 104.169 125.651C104.323 125.909 104.529 126.132 104.773 126.306C105.017 126.481 105.294 126.604 105.587 126.668C106.747 126.731 106.614 124.745 106.053 123.293Z" fill="#FDBC66"/></g><g id="Group 59"><path id="Path 118" style="mix-blend-mode:multiply" opacity="0.3" d="M77.848 210.772H77.816C77.7411 210.763 77.6727 210.726 77.6257 210.667C77.5786 210.608 77.5568 210.533 77.565 210.458C78.348 203.414 76.888 198.295 75.599 193.779C75.281 192.663 74.98 191.609 74.718 190.551C73.286 184.775 72.66 182.544 71.996 180.183C71.564 178.645 71.117 177.054 70.424 174.396C70.405 174.323 70.4158 174.245 70.4541 174.18C70.4924 174.115 70.5549 174.068 70.628 174.049C70.7011 174.03 70.7787 174.041 70.8437 174.079C70.9088 174.117 70.956 174.18 70.975 174.253C71.666 176.906 72.112 178.493 72.544 180.029C73.209 182.394 73.837 184.629 75.271 190.414C75.531 191.462 75.83 192.514 76.147 193.622C77.447 198.189 78.926 203.365 78.131 210.522C78.1224 210.591 78.089 210.655 78.0369 210.701C77.9847 210.747 77.9175 210.772 77.848 210.772V210.772Z" fill="url(#paint68_linear_445_2)"/></g><path id="Path 119" d="M106.041 121.195L107.041 123.586C107.041 123.586 108.041 126.455 109.352 125.379C110.426 124.5 110.623 124.579 110.659 124.637C110.666 124.648 110.665 124.662 110.667 124.662C110.669 124.662 110.696 124.09 110.707 123.586C111.075 124.595 111.263 125.66 111.265 126.734C111.265 128.057 111.265 129.474 110.229 130.559C109.509 131.28 108.538 131.695 107.519 131.715C106.515 131.5 105.548 131.137 104.65 130.639C104.65 130.639 107.758 129.439 107.918 129.005C108.351 127.813 106.834 126.705 106.244 123.864C106.062 122.987 105.993 122.09 106.041 121.195V121.195Z" fill="black"/><g id="Path 120" style="mix-blend-mode:multiply" opacity="0.3"><path d="M135.502 220.533C129.502 223.614 114.039 229.133 95.62 226.388C88.6684 225.345 81.944 223.131 75.733 219.839C76.309 218.093 76.7621 216.439 77.1111 214.88C89.3641 223.462 94.488 215.116 102.4 213.148C110.633 211.105 121.221 215.348 114.776 196.337C108.331 177.326 119.022 178.706 119.022 178.706L136.602 181.716C136.724 182.9 136.81 183.9 136.871 184.679C138.408 204.878 136.884 214.196 135.502 220.533Z" fill="#94672E"/></g><path id="Path 121" d="M180.829 170.603C182.735 171.99 184.238 173.86 185.183 176.019C182.254 183.067 177.382 189.137 171.133 193.519C157.551 202.812 137.633 203.124 123.766 192.527C107.194 179.866 104.426 155.588 111.386 145.191C112.186 143.991 114.822 140.059 118.911 139.608C121.494 139.323 125.011 140.388 130.563 146.89C142.136 160.44 138.048 168.901 144.885 172.865C155.139 178.808 170.375 163.287 180.829 170.603Z" fill="#94672E"/><g id="Group 60"><path id="Path 122" style="mix-blend-mode:multiply" opacity="0.3" d="M134.178 198.354C134.157 198.354 134.137 198.352 134.117 198.348C133.953 198.312 117.643 194.564 110.317 174.355C110.291 174.284 110.295 174.206 110.327 174.137C110.359 174.069 110.417 174.016 110.487 173.99C110.558 173.965 110.637 173.968 110.705 174C110.773 174.032 110.826 174.09 110.852 174.161C118.066 194.061 134.077 197.761 134.238 197.792C134.307 197.806 134.368 197.846 134.409 197.903C134.451 197.96 134.47 198.03 134.462 198.1C134.455 198.17 134.422 198.235 134.369 198.282C134.317 198.329 134.248 198.354 134.178 198.354V198.354Z" fill="url(#paint69_linear_445_2)"/></g></g></g><path id="Path 123" d="M196.221 167.106C196.221 167.106 195.012 164.783 193.329 165.921C191.646 167.059 189.284 167.841 190.856 168.244C192.428 168.647 196.221 167.106 196.221 167.106Z" fill="url(#paint70_linear_445_2)"/></g></g><defs><linearGradient id="paint0_linear_445_2" x1="77.065" y1="-0.00396729" x2="77.065" y2="93.5579" gradientUnits="userSpaceOnUse"><stop stop-color="#94672E"/><stop offset="1" stop-color="#FDBC66"/></linearGradient><linearGradient id="paint1_linear_445_2" x1="103.834" y1="19.5034" x2="8.79467" y2="149.019" gradientUnits="userSpaceOnUse"><stop stop-color="#FFC444"/><stop offset="0.996" stop-color="#F36F56"/></linearGradient><linearGradient id="paint2_linear_445_2" x1="108.061" y1="15.4594" x2="79.6148" y2="51.6078" gradientUnits="userSpaceOnUse"><stop stop-color="#FFC444"/><stop offset="0.996" stop-color="#F36F56"/></linearGradient><linearGradient id="paint3_linear_445_2" x1="57.5135" y1="-27.364" x2="101.4" y2="79.1698" gradientUnits="userSpaceOnUse"><stop stop-color="#FFC444"/><stop offset="0.996" stop-color="#F36F56"/></linearGradient><linearGradient id="paint4_linear_445_2" x1="33.2228" y1="185.34" x2="120.657" y2="-28.2432" gradientUnits="userSpaceOnUse"><stop offset="0.004" stop-color="#EBEFF2"/><stop offset="1" stop-color="white"/></linearGradient><linearGradient id="paint5_linear_445_2" x1="61.7287" y1="5.64732" x2="116.97" y2="99.0112" gradientUnits="userSpaceOnUse"><stop stop-color="#FF9085"/><stop offset="1" stop-color="#FB6FBB"/></linearGradient><linearGradient id="paint6_linear_445_2" x1="66.2508" y1="3.21374" x2="121.575" y2="5.54849" gradientUnits="userSpaceOnUse"><stop stop-color="#FF9085"/><stop offset="1" stop-color="#FB6FBB"/></linearGradient><linearGradient id="paint7_linear_445_2" x1="47.4572" y1="13.3181" x2="96.1828" y2="110.287" gradientUnits="userSpaceOnUse"><stop stop-color="#FF9085"/><stop offset="1" stop-color="#FB6FBB"/></linearGradient><linearGradient id="paint8_linear_445_2" x1="114.232" y1="14.9461" x2="41.703" y2="85.7004" gradientUnits="userSpaceOnUse"><stop stop-color="#94672E"/><stop offset="0.996" stop-color="#F36F56"/><stop offset="1" stop-color="#F36F56"/></linearGradient><linearGradient id="paint9_linear_445_2" x1="270.497" y1="310.069" x2="276.211" y2="391.34" gradientUnits="userSpaceOnUse"><stop stop-color="#311944"/><stop offset="1" stop-color="#893976"/></linearGradient><linearGradient id="paint10_linear_445_2" x1="290.25" y1="366.704" x2="290.76" y2="339.684" gradientUnits="userSpaceOnUse"><stop stop-color="#FFC444"/><stop offset="0.996" stop-color="#F36F56"/></linearGradient><linearGradient id="paint11_linear_445_2" x1="298.279" y1="302.367" x2="303.992" y2="383.629" gradientUnits="userSpaceOnUse"><stop stop-color="#311944"/><stop offset="1" stop-color="#893976"/></linearGradient><linearGradient id="paint12_linear_445_2" x1="321.501" y1="367.08" x2="322.004" y2="340.054" gradientUnits="userSpaceOnUse"><stop stop-color="#FFC444"/><stop offset="0.996" stop-color="#F36F56"/></linearGradient><linearGradient id="paint13_linear_445_2" x1="274.673" y1="279.788" x2="303.443" y2="279.788" gradientUnits="userSpaceOnUse"><stop stop-color="#444B8C"/><stop offset="0.996" stop-color="#26264F"/></linearGradient><linearGradient id="paint14_linear_445_2" x1="274.666" y1="279.788" x2="303.443" y2="279.788" gradientUnits="userSpaceOnUse"><stop stop-color="#444B8C"/><stop offset="0.996" stop-color="#26264F"/></linearGradient><linearGradient id="paint15_linear_445_2" x1="290.918" y1="283.899" x2="334.595" y2="283.899" gradientUnits="userSpaceOnUse"><stop stop-color="#444B8C"/><stop offset="0.996" stop-color="#26264F"/></linearGradient><linearGradient id="paint16_linear_445_2" x1="188.308" y1="163.6" x2="194.384" y2="195.164" gradientUnits="userSpaceOnUse"><stop stop-color="#FFC444"/><stop offset="0.996" stop-color="#F36F56"/></linearGradient><linearGradient id="paint17_linear_445_2" x1="346.63" y1="230.732" x2="351.337" y2="230.732" gradientUnits="userSpaceOnUse"><stop stop-color="#FFC444"/><stop offset="0.996" stop-color="#F36F56"/></linearGradient><linearGradient id="paint18_linear_445_2" x1="339.111" y1="240.249" x2="339.216" y2="223.496" gradientUnits="userSpaceOnUse"><stop offset="0.1" stop-color="#311944"/><stop offset="0.267" stop-color="#361B47"/><stop offset="0.48" stop-color="#462050"/><stop offset="0.719" stop-color="#602A5F"/><stop offset="0.974" stop-color="#843773"/><stop offset="1" stop-color="#893976"/></linearGradient><linearGradient id="paint19_linear_445_2" x1="332.781" y1="228.175" x2="346.048" y2="228.505" gradientUnits="userSpaceOnUse"><stop offset="0.1" stop-color="#311944"/><stop offset="0.267" stop-color="#361B47"/><stop offset="0.48" stop-color="#462050"/><stop offset="0.719" stop-color="#602A5F"/><stop offset="0.974" stop-color="#843773"/><stop offset="1" stop-color="#893976"/></linearGradient><linearGradient id="paint20_linear_445_2" x1="328.328" y1="231.081" x2="332.482" y2="231.081" gradientUnits="userSpaceOnUse"><stop stop-color="#FFC444"/><stop offset="0.996" stop-color="#F36F56"/></linearGradient><linearGradient id="paint21_linear_445_2" x1="314.402" y1="249.808" x2="312.331" y2="182.126" gradientUnits="userSpaceOnUse"><stop offset="0.1" stop-color="#311944"/><stop offset="0.685" stop-color="#6D2E66"/><stop offset="1" stop-color="#893976"/></linearGradient><linearGradient id="paint22_linear_445_2" x1="346.561" y1="277.849" x2="296.16" y2="274.831" gradientUnits="userSpaceOnUse"><stop stop-color="#311944"/><stop offset="1" stop-color="#893976"/></linearGradient><linearGradient id="paint23_linear_445_2" x1="302.397" y1="239.919" x2="319.465" y2="241.634" gradientUnits="userSpaceOnUse"><stop stop-color="#311944"/><stop offset="1" stop-color="#893976"/></linearGradient><linearGradient id="paint24_linear_445_2" x1="339.968" y1="210.411" x2="343.879" y2="282.728" gradientUnits="userSpaceOnUse"><stop offset="0.1" stop-color="#311944"/><stop offset="0.685" stop-color="#6D2E66"/><stop offset="1" stop-color="#893976"/></linearGradient><linearGradient id="paint25_linear_445_2" x1="330.421" y1="251.318" x2="367.842" y2="284.363" gradientUnits="userSpaceOnUse"><stop stop-color="#311944"/><stop offset="1" stop-color="#893976"/></linearGradient><linearGradient id="paint26_linear_445_2" x1="320.252" y1="247.157" x2="336.511" y2="244.339" gradientUnits="userSpaceOnUse"><stop offset="0.1" stop-color="#311944"/><stop offset="0.685" stop-color="#6D2E66"/><stop offset="1" stop-color="#893976"/></linearGradient><linearGradient id="paint27_linear_445_2" x1="346.195" y1="303.125" x2="344.882" y2="237.912" gradientUnits="userSpaceOnUse"><stop offset="0.1" stop-color="#311944"/><stop offset="0.267" stop-color="#361B47"/><stop offset="0.48" stop-color="#462050"/><stop offset="0.719" stop-color="#602A5F"/><stop offset="0.974" stop-color="#843773"/><stop offset="1" stop-color="#893976"/></linearGradient><linearGradient id="paint28_linear_445_2" x1="349.038" y1="318.23" x2="346.921" y2="228.226" gradientUnits="userSpaceOnUse"><stop stop-color="#311944"/><stop offset="1" stop-color="#893976"/></linearGradient><linearGradient id="paint29_linear_445_2" x1="362.874" y1="270.884" x2="332.628" y2="256.7" gradientUnits="userSpaceOnUse"><stop stop-color="#FFC444"/><stop offset="0.996" stop-color="#F36F56"/></linearGradient><linearGradient id="paint30_linear_445_2" x1="336.301" y1="257.782" x2="366.944" y2="267.417" gradientUnits="userSpaceOnUse"><stop stop-color="#FFC444"/><stop offset="0.996" stop-color="#F36F56"/></linearGradient><linearGradient id="paint31_linear_445_2" x1="342.47" y1="248.368" x2="335.701" y2="221.037" gradientUnits="userSpaceOnUse"><stop stop-color="#FFC444"/><stop offset="0.996" stop-color="#F36F56"/></linearGradient><linearGradient id="paint32_linear_445_2" x1="290.876" y1="132.759" x2="290.876" y2="104.579" gradientUnits="userSpaceOnUse"><stop stop-color="#FFC444"/><stop offset="0.996" stop-color="#F36F56"/></linearGradient><linearGradient id="paint33_linear_445_2" x1="296.572" y1="124.241" x2="282.815" y2="95.6417" gradientUnits="userSpaceOnUse"><stop stop-color="#444B8C"/><stop offset="0.996" stop-color="#3E4177"/></linearGradient><linearGradient id="paint34_linear_445_2" x1="-108.114" y1="128.398" x2="-96.8142" y2="102.346" gradientUnits="userSpaceOnUse"><stop stop-color="#FFC444"/><stop offset="0.996" stop-color="#F36F56"/></linearGradient><linearGradient id="paint35_linear_445_2" x1="138.15" y1="108.663" x2="140.184" y2="143.118" gradientUnits="userSpaceOnUse"><stop stop-color="#444B8C"/><stop offset="0.996" stop-color="#26264F"/></linearGradient><linearGradient id="paint36_linear_445_2" x1="131.778" y1="177.286" x2="131.778" y2="99.9479" gradientUnits="userSpaceOnUse"><stop stop-color="#253E66"/><stop offset="0.996" stop-color="#3E4177"/><stop offset="1" stop-color="#3E4177"/></linearGradient><linearGradient id="paint37_linear_445_2" x1="199.958" y1="340.732" x2="182.856" y2="326.932" gradientUnits="userSpaceOnUse"><stop stop-color="#444B8C"/><stop offset="0.996" stop-color="#3E4177"/></linearGradient><linearGradient id="paint38_linear_445_2" x1="81.0653" y1="319.113" x2="71.7667" y2="310.423" gradientUnits="userSpaceOnUse"><stop stop-color="#444B8C"/><stop offset="0.996" stop-color="#3E4177"/></linearGradient><linearGradient id="paint39_linear_445_2" x1="924.823" y1="345.762" x2="962.418" y2="345.762" gradientUnits="userSpaceOnUse"><stop stop-color="#253E66"/><stop offset="0.996" stop-color="#3E4177"/><stop offset="1" stop-color="#3E4177"/></linearGradient><linearGradient id="paint40_linear_445_2" x1="983.854" y1="299.786" x2="922.721" y2="338.173" gradientUnits="userSpaceOnUse"><stop stop-color="#EBEFF2"/><stop offset="0.995" stop-color="#B7C0CE"/></linearGradient><linearGradient id="paint41_linear_445_2" x1="1047.64" y1="326.505" x2="1077.75" y2="326.505" gradientUnits="userSpaceOnUse"><stop stop-color="#253E66"/><stop offset="0.996" stop-color="#3E4177"/><stop offset="1" stop-color="#3E4177"/></linearGradient><linearGradient id="paint42_linear_445_2" x1="1096.69" y1="287.064" x2="1044.41" y2="316.198" gradientUnits="userSpaceOnUse"><stop stop-color="#EBEFF2"/><stop offset="0.995" stop-color="#B7C0CE"/></linearGradient><linearGradient id="paint43_linear_445_2" x1="760.083" y1="341.349" x2="805.862" y2="341.349" gradientUnits="userSpaceOnUse"><stop stop-color="#253E66"/><stop offset="0.996" stop-color="#3E4177"/><stop offset="1" stop-color="#3E4177"/></linearGradient><linearGradient id="paint44_linear_445_2" x1="828.715" y1="280.148" x2="760.274" y2="327.26" gradientUnits="userSpaceOnUse"><stop stop-color="#444B8C"/><stop offset="0.996" stop-color="#3E4177"/></linearGradient><linearGradient id="paint45_linear_445_2" x1="789.756" y1="332.426" x2="813.358" y2="331.978" gradientUnits="userSpaceOnUse"><stop stop-color="#444B8C"/><stop offset="0.996" stop-color="#3E4177"/></linearGradient><linearGradient id="paint46_linear_445_2" x1="155.739" y1="408.528" x2="164.146" y2="232.183" gradientUnits="userSpaceOnUse"><stop stop-color="#E38DDD"/><stop offset="0.004" stop-color="#94672E"/><stop offset="1" stop-color="#FDBC66"/></linearGradient><linearGradient id="paint47_linear_445_2" x1="265.749" y1="369.328" x2="265.767" y2="260.464" gradientUnits="userSpaceOnUse"><stop stop-color="#E38DDD"/><stop offset="0.004" stop-color="#94672E"/><stop offset="1" stop-color="#FDBC66"/></linearGradient><linearGradient id="paint48_linear_445_2" x1="877.401" y1="-9.47178" x2="873.125" y2="116.721" gradientUnits="userSpaceOnUse"><stop stop-color="#94672E"/><stop offset="1" stop-color="#FDBC66"/></linearGradient><linearGradient id="paint49_linear_445_2" x1="777.708" y1="-2.22994" x2="772.512" y2="124.583" gradientUnits="userSpaceOnUse"><stop stop-color="#94672E"/><stop offset="1" stop-color="#FDBC66"/></linearGradient><linearGradient id="paint50_linear_445_2" x1="123.943" y1="388.282" x2="123.943" y2="255.983" gradientUnits="userSpaceOnUse"><stop stop-color="#E38DDD"/><stop offset="0.004" stop-color="#94672E"/><stop offset="1" stop-color="#FDBC66"/></linearGradient><linearGradient id="paint51_linear_445_2" x1="994.529" y1="369.191" x2="1060.3" y2="253.009" gradientUnits="userSpaceOnUse"><stop offset="0.004" stop-color="#E38DDD"/><stop offset="1" stop-color="#9571F6"/></linearGradient><linearGradient id="paint52_linear_445_2" x1="164.589" y1="246.106" x2="330.669" y2="246.106" gradientUnits="userSpaceOnUse"><stop stop-color="#253E66"/><stop offset="0.996" stop-color="#3E4177"/><stop offset="1" stop-color="#3E4177"/></linearGradient><linearGradient id="paint53_linear_445_2" x1="135.833" y1="248.712" x2="278.644" y2="248.712" gradientUnits="userSpaceOnUse"><stop stop-color="#253E66"/><stop offset="0.996" stop-color="#3E4177"/><stop offset="1" stop-color="#3E4177"/></linearGradient><linearGradient id="paint54_linear_445_2" x1="79.7415" y1="244.976" x2="134.714" y2="244.976" gradientUnits="userSpaceOnUse"><stop stop-color="#253E66"/><stop offset="0.996" stop-color="#3E4177"/><stop offset="1" stop-color="#3E4177"/></linearGradient><linearGradient id="paint55_linear_445_2" x1="119.286" y1="249.798" x2="173.89" y2="249.798" gradientUnits="userSpaceOnUse"><stop stop-color="#444B8C"/><stop offset="0.996" stop-color="#3E4177"/></linearGradient><linearGradient id="paint56_linear_445_2" x1="973.832" y1="274.203" x2="973.832" y2="271.661" gradientUnits="userSpaceOnUse"><stop stop-color="#EBEFF2"/><stop offset="0.995" stop-color="#B7C0CE"/></linearGradient><linearGradient id="paint57_linear_445_2" x1="1000.96" y1="276.509" x2="1010.34" y2="248.724" gradientUnits="userSpaceOnUse"><stop stop-color="#EBEFF2"/><stop offset="0.995" stop-color="#B7C0CE"/></linearGradient><linearGradient id="paint58_linear_445_2" x1="1030.69" y1="261.507" x2="1048.99" y2="234.995" gradientUnits="userSpaceOnUse"><stop stop-color="#253E66"/><stop offset="0.996" stop-color="#3E4177"/><stop offset="1" stop-color="#3E4177"/></linearGradient><linearGradient id="paint59_linear_445_2" x1="984.091" y1="274.278" x2="1000.83" y2="234.274" gradientUnits="userSpaceOnUse"><stop offset="0.004" stop-color="#E38DDD"/><stop offset="1" stop-color="#9571F6"/></linearGradient><linearGradient id="paint60_linear_445_2" x1="965.853" y1="290.176" x2="982.595" y2="250.173" gradientUnits="userSpaceOnUse"><stop offset="0.004" stop-color="#E38DDD"/><stop offset="1" stop-color="#9571F6"/></linearGradient><linearGradient id="paint61_linear_445_2" x1="93.4813" y1="188.467" x2="186.247" y2="138.32" gradientUnits="userSpaceOnUse"><stop stop-color="#253E66"/><stop offset="0.996" stop-color="#3E4177"/><stop offset="1" stop-color="#3E4177"/></linearGradient><linearGradient id="paint62_linear_445_2" x1="-6.98433" y1="350.443" x2="-2.71742" y2="359.548" gradientUnits="userSpaceOnUse"><stop stop-color="#444B8C"/><stop offset="0.996" stop-color="#26264F"/></linearGradient><linearGradient id="paint63_linear_445_2" x1="-137.071" y1="384.196" x2="-137.071" y2="355.399" gradientUnits="userSpaceOnUse"><stop offset="0.1" stop-color="#311944"/><stop offset="0.267" stop-color="#361B47"/><stop offset="0.48" stop-color="#462050"/><stop offset="0.719" stop-color="#602A5F"/><stop offset="0.974" stop-color="#843773"/><stop offset="1" stop-color="#893976"/></linearGradient><linearGradient id="paint64_linear_445_2" x1="-6.15715" y1="349.525" x2="-1.67275" y2="358.619" gradientUnits="userSpaceOnUse"><stop stop-color="#444B8C"/><stop offset="0.996" stop-color="#26264F"/></linearGradient><linearGradient id="paint65_linear_445_2" x1="-18.5051" y1="371.514" x2="-12.949" y2="380.428" gradientUnits="userSpaceOnUse"><stop stop-color="#444B8C"/><stop offset="0.996" stop-color="#26264F"/></linearGradient><linearGradient id="paint66_linear_445_2" x1="151.14" y1="190.582" x2="-38.9871" y2="288.842" gradientUnits="userSpaceOnUse"><stop offset="0.1" stop-color="#311944"/><stop offset="0.267" stop-color="#361B47"/><stop offset="0.48" stop-color="#462050"/><stop offset="0.719" stop-color="#602A5F"/><stop offset="0.974" stop-color="#843773"/><stop offset="1" stop-color="#893976"/></linearGradient><linearGradient id="paint67_linear_445_2" x1="-17.6871" y1="370.591" x2="-12.9518" y2="379.667" gradientUnits="userSpaceOnUse"><stop stop-color="#444B8C"/><stop offset="0.996" stop-color="#26264F"/></linearGradient><linearGradient id="paint68_linear_445_2" x1="70.4149" y1="192.406" x2="78.3548" y2="192.406" gradientUnits="userSpaceOnUse"><stop stop-color="#FF9085"/><stop offset="1" stop-color="#FB6FBB"/></linearGradient><linearGradient id="paint69_linear_445_2" x1="110.3" y1="186.164" x2="134.464" y2="186.164" gradientUnits="userSpaceOnUse"><stop stop-color="#FF9085"/><stop offset="1" stop-color="#FB6FBB"/></linearGradient><linearGradient id="paint70_linear_445_2" x1="191.563" y1="165.688" x2="193.196" y2="173.551" gradientUnits="userSpaceOnUse"><stop stop-color="#FFC444"/><stop offset="0.996" stop-color="#F36F56"/></linearGradient><clipPath id="clip0_445_2"><rect width="373.53" height="380" fill="white"/></clipPath></defs><style>#clock,#man_1,#man_2,#rotate_3,#translate{transform-origin:center;transform-box:fill-box}#clock{animation:spin 2s linear infinite}#man_1,#man_2{animation:translateY 2s linear infinite}#translate{animation:translateX 2s linear infinite}@keyframes spin{0%,100%{transform:rotate(0)}50%{transform:rotate(10deg)}}@keyframes translateX{0%,100%{transform:translateX(0)}50%{transform:translateX(4px)}}@keyframes translateY{0%,100%{transform:translateY(0)}50%{transform:translateY(-5px)}}</style></svg>