<svg xmlns="http://www.w3.org/2000/svg" width="79.914" height="80"><g data-name="030---Messy-Books"><path d="M7.797 72.02.141 28.549a9.657 9.657 0 0 1-.138-1.269 9.874 9.874 0 0 1 8.291-9.974l14.776-2.608-.4 57.322z" fill="#35495e"/><path data-name="Shape" d="M64.665 70.116a2.759 2.759 0 0 1-2.194 2.069l-43.485 7.671A9.672 9.672 0 0 1 7.66 70.75a9.852 9.852 0 0 1 7.74-9.85l12.182 3.421h-.014L16.6 66.267a4.146 4.146 0 0 0-3.146 5.583 4.263 4.263 0 0 0 4.746 2.538l33.239-5.859z" fill="#2c3e50"/><path data-name="Shape" d="m27.567 64.322-10.968 1.945a4.146 4.146 0 0 0-3.143 5.588 4.263 4.263 0 0 0 4.744 2.537l33.234-5.863z" fill="#f9eab0"/><path data-name="Shape" d="m17.601 45.754 7.666-43.476a2.779 2.779 0 0 1 3.2-2.238l43.15 7.608a9.882 9.882 0 0 1 8.3 9.981 9.864 9.864 0 0 1-.142 1.265L72.107 62.37z" fill="#e64c3c"/><path data-name="Shape" d="M62.592 14.441a1.426 1.426 0 0 1-.241-.021l-31.25-5.51a1.38 1.38 0 0 1 .48-2.711l31.248 5.5a1.38 1.38 0 0 1-.237 2.739zM55.959 20.271a1.31 1.31 0 0 1-.241-.022l-20.38-3.588a1.38 1.38 0 0 1 .479-2.716l20.381 3.587a1.38 1.38 0 0 1-.239 2.74z" fill="#3f5c6c"/><rect width="31.731" height="16.555" rx="1" transform="rotate(10.02 -106.168 175.65)" fill="#ecf0f1"/><path data-name="Shape" d="M79.909 17.623a9.165 9.165 0 0 1-.138 1.269l-7.67 43.471-10.637-3.242 6.167-34.959 1.462-8.25 1.49-8.443 1.035.179a9.883 9.883 0 0 1 8.291 9.975z" fill="#c03a2b"/><path data-name="Shape" d="m63.947 51.119-43.154-7.6a2.853 2.853 0 0 0-.483-.041 2.759 2.759 0 0 0-.468 5.478l43.471 7.654a4.157 4.157 0 0 1 3.132 5.6 4.237 4.237 0 0 1-4.732 2.525l-43.31-7.629a2.853 2.853 0 0 0-.483-.041 2.759 2.759 0 0 0-.483 5.477l43.485 7.657a9.667 9.667 0 0 0 11.331-9.092 9.9 9.9 0 0 0-8.305-9.988z" fill="#802f34"/><path data-name="Shape" d="M66.443 62.211a4.237 4.237 0 0 1-4.732 2.525l-43.305-7.63 1.435-8.153 43.471 7.657a4.157 4.157 0 0 1 3.132 5.6z" fill="#f9eab0"/></g></svg>