<svg xmlns="http://www.w3.org/2000/svg" width="118.095" height="80"><path data-name="Path 199" d="M55.241 64.762h-19.05l-1.9 13.333h22.85z" fill="#c7cfe2"/><path data-name="Path 200" d="m56.054 70.476-.816-5.714H36.19l-.816 5.714z" fill="#afb9d2"/><path data-name="Path 201" d="M87.619 66.667H3.809A3.81 3.81 0 0 1 0 62.857V3.809A3.809 3.809 0 0 1 3.809 0h83.81a3.809 3.809 0 0 1 3.809 3.809v59.047a3.81 3.81 0 0 1-3.809 3.811z" fill="#d5dced"/><path data-name="Path 202" d="M3.809 0A3.809 3.809 0 0 0 0 3.809v59.047a3.81 3.81 0 0 0 3.809 3.809h62.857L24.766-.001z" fill="#c7cfe2"/><path data-name="Path 203" d="M87.619 0H3.809A3.809 3.809 0 0 0 0 3.809v53.333h91.428V3.809A3.809 3.809 0 0 0 87.619 0z" fill="#5b5d6e"/><path data-name="Path 204" d="M0 3.809v53.333h60.68L24.762 0H3.809A3.809 3.809 0 0 0 0 3.809z" fill="#464655"/><path data-name="Path 205" d="M83.809 51.428H7.619a1.9 1.9 0 0 1-1.9-1.9v-41.9a1.9 1.9 0 0 1 1.9-1.9h76.19a1.9 1.9 0 0 1 1.9 1.9v41.9a1.9 1.9 0 0 1-1.9 1.9z" fill="#00aaf0"/><path data-name="Path 206" d="M99.048 32.381H72.381a3.809 3.809 0 0 0-3.809 3.809v40a3.809 3.809 0 0 0 3.809 3.809h26.667a3.809 3.809 0 0 0 3.809-3.809v-40a3.809 3.809 0 0 0-3.809-3.809z" fill="#afb9d2"/><path data-name="Path 207" d="M68.571 36.19v40a3.81 3.81 0 0 0 3.809 3.809h26.667L72.381 32.381a3.809 3.809 0 0 0-3.81 3.809z" fill="#959cb5"/><path data-name="Path 208" d="M100 74.285H71.428a.952.952 0 0 1-.952-.952V39.047a.952.952 0 0 1 .952-.952h28.571a.952.952 0 0 1 .952.952v34.286a.952.952 0 0 1-.951.952z" fill="#00c3ff"/><path data-name="Path 209" d="M81.905 59.048h34.286a1.9 1.9 0 0 1 1.9 1.9v17.143a1.9 1.9 0 0 1-1.9 1.9H81.905a1.9 1.9 0 0 1-1.9-1.9V60.953a1.9 1.9 0 0 1 1.9-1.905z" fill="#5b5d6e"/><path data-name="Path 210" d="M81.905 59.048a1.9 1.9 0 0 0-1.9 1.9v17.143a1.9 1.9 0 0 0 1.9 1.9h22.856L93.333 59.039z" fill="#464655"/><path data-name="Path 211" d="M60.952 79.999H30.476a1.904 1.904 0 1 1 0-3.809h30.476a1.904 1.904 0 1 1 0 3.809z" fill="#d5dced"/><path data-name="Path 212" d="M47.619 63.81H43.81a1.9 1.9 0 0 1-1.9-1.9 1.9 1.9 0 0 1 1.9-1.9h3.809a1.9 1.9 0 0 1 1.9 1.9 1.9 1.9 0 0 1-1.9 1.9z" fill="#959cb5"/><path data-name="Path 213" d="M111.428 78.095H86.666a.952.952 0 0 1-.952-.952V61.904a.952.952 0 0 1 .952-.952h24.762a.952.952 0 0 1 .952.952v15.238a.952.952 0 0 1-.952.953z" fill="#00d2ff"/></svg>