<svg xmlns="http://www.w3.org/2000/svg" width="94.456" height="82.173"><path data-name="Path 179" d="m20.178 17.056 52.108 30.085-4.535 7.855a6.07 6.07 0 0 1-8.292 2.222L17.865 33.202a6.07 6.07 0 0 1-2.222-8.291l4.535-7.855z" fill="#17ace8"/><path data-name="Path 180" d="M35.283 3.035 94.456 37.2l-9.85 17.06-64.43-37.2 6.815-11.803a6.07 6.07 0 0 1 8.292-2.222z" fill="#0d70b2"/><path data-name="Path 181" d="M67.752 54.997a6.166 6.166 0 0 1-.435.643c.017.01.03.021.046.03a9.848 9.848 0 0 0 13.452-3.6l-8.529-4.924z" fill="#fedb41"/><path data-name="Path 182" d="M77.734 38.916a3.778 3.778 0 1 0 5.159-1.383 3.778 3.778 0 0 0-5.159 1.383z" fill="#00ddc1"/><path data-name="Path 183" d="M32.531 34.259a1.32 1.32 0 0 1-.662-.178l-10.882-6.284a1.328 1.328 0 1 1 1.328-2.3l10.88 6.283a1.328 1.328 0 0 1-.665 2.479z" fill="#e1e4fb"/><path data-name="Path 184" d="M0 37.169h3.983a4.552 4.552 0 0 1 4.552 4.552v35.9a4.552 4.552 0 0 1-4.552 4.552H0z" fill="#0d70b2"/><path data-name="Path 185" d="M8.535 44.762h8.535v27.313H8.535z" fill="#c5c9f7"/><path data-name="Path 186" d="m39.314 45.586-3.832 6.533a6.1 6.1 0 0 1-5.235 3H17.071v9.1h13.174a15.233 15.233 0 0 0 13.089-7.5l3.864-6.589z" fill="#e1e4fb"/></svg>