<svg xmlns="http://www.w3.org/2000/svg" width="78.644" height="80"><path data-name="Path 151" d="M43.409 0h35.235v75.934H43.409zm0 0" fill="#e3584b"/><path data-name="Path 152" d="M43.409 24.407h35.235v2.71H43.409zm0 0" fill="#cc4f43"/><path data-name="Path 153" d="M48.815 8.131h2.71v13.552h-2.71zm0 0" fill="#d6d9db"/><path data-name="Path 154" d="M48.815 29.836h2.71v18.973h-2.71zm0 0" fill="#d6d9db"/><path data-name="Path 155" d="M44.747 75.934h2.71V80h-2.71zm0 0" fill="#0a4a7a"/><path data-name="Path 156" d="M74.578 75.934h2.71V80h-2.71zm0 0" fill="#0a4a7a"/><path data-name="Path 157" d="M0 28.503h37.945v47.432H0zm0 0" fill="#4398d1"/><g data-name="Group 81" fill="#2d81ba"><path data-name="Path 158" d="M0 37.965h37.945v2.71H0zm0 0"/><path data-name="Path 159" d="M4.066 32.544h2.71v2.71h-2.71zm0 0"/><path data-name="Path 160" d="M9.486 32.544h2.71v2.71h-2.71zm0 0"/><path data-name="Path 161" d="M14.907 32.544h2.71v2.71h-2.71zm0 0"/><path data-name="Path 162" d="M25.749 32.544h8.131v2.71h-8.131zm0 0"/></g><path data-name="Path 163" d="M0 0h37.945v23.038H0zm0 0" fill="#ffa217"/><path data-name="Path 164" d="M5.421 5.421h16.262v12.2H5.421zm0 0" fill="#87ced9"/><path data-name="Path 165" d="M1.355 75.934h2.71V80h-2.71zm0 0" fill="#0a4a7a"/><path data-name="Path 166" d="M33.899 75.934h2.71V80h-2.71zm0 0" fill="#0a4a7a"/><path data-name="Path 167" d="M35.235 58.317A14.907 14.907 0 1 1 20.328 43.41a14.907 14.907 0 0 1 14.907 14.907zm0 0" fill="#3e8dc2"/><path data-name="Path 168" d="M32.521 56.962A13.552 13.552 0 1 1 18.973 43.41a13.552 13.552 0 0 1 13.548 13.552zm0 0" fill="#d6d9db"/><path data-name="Path 169" d="M28.459 56.952a9.486 9.486 0 1 1-9.487-9.486 9.486 9.486 0 0 1 9.487 9.486zm0 0" fill="#71c4d1"/><path data-name="Path 170" d="M25.757 56.951a6.776 6.776 0 1 1-6.776-6.776 6.776 6.776 0 0 1 6.776 6.776zm0 0" fill="#87ced9"/><path data-name="Path 171" d="m28.569 47.37-5.517 5.517v8.131l5.517 5.517a13.551 13.551 0 0 0 0-19.165zm0 0" fill="#d6d9db"/><path data-name="Path 172" d="M5.421 5.421h16.262v2.71H5.421zm0 0" fill="#71c4d1"/><path data-name="Path 173" d="M31.187 4.066h2.71v2.71h-2.71zm0 0" fill="#eb8b23"/><path data-name="Path 174" d="M31.187 9.486h2.71v2.71h-2.71zm0 0" fill="#eb8b23"/><path data-name="Path 175" d="M32.542 15.594a2.033 2.033 0 1 0 2.033 2.033 2.032 2.032 0 0 0-2.033-2.033zm0 0" fill="#eb8b23"/><path data-name="Path 176" d="M25.763 0h2.71v23.038h-2.71zm0 0" fill="#eb8b23"/><path data-name="Path 177" d="M51.526 8.131v13.552h-2.71v2.71h5.421V8.131zm0 0" fill="#cf4e42"/><path data-name="Path 178" d="M51.526 29.837V48.81h-2.71v2.71h5.421V29.837zm0 0" fill="#cf4e42"/></svg>